<svg xmlns="http://www.w3.org/2000/svg" xmlns:xlink="http://www.w3.org/1999/xlink" version="1.1" x="0px" y="0px" viewBox="0 0 100 125" enable-background="new 0 0 100 100" xml:space="preserve"><path d="M39.505,69.335c-2.253,0-4.019,2.321-4.019,5.284s1.765,5.285,4.019,5.285c2.252,0,4.017-2.322,4.017-5.285  S41.757,69.335,39.505,69.335z M39.505,76.934c-0.36,0-1.048-0.901-1.048-2.314c0-1.412,0.688-2.314,1.048-2.314  c0.359,0,1.047,0.902,1.047,2.314C40.552,76.032,39.864,76.934,39.505,76.934z"/><path d="M65.051,74.619c0-2.963-1.765-5.284-4.017-5.284s-4.019,2.321-4.019,5.284s1.767,5.285,4.019,5.285  S65.051,77.582,65.051,74.619z M61.034,76.934c-0.36,0-1.048-0.901-1.048-2.314c0-1.412,0.688-2.314,1.048-2.314  c0.359,0,1.047,0.902,1.047,2.314C62.081,76.032,61.394,76.934,61.034,76.934z"/><path d="M48.98,40.939c7.223,0,13.101-5.877,13.101-13.101c0-7.224-5.877-13.101-13.101-13.101c-7.224,0-13.1,5.877-13.1,13.101  C35.881,35.062,41.757,40.939,48.98,40.939z M48.98,17.707c5.586,0,10.131,4.545,10.131,10.131c0,5.586-4.545,10.131-10.131,10.131  c-5.586,0-10.13-4.545-10.13-10.131C38.851,22.252,43.394,17.707,48.98,17.707z"/><path d="M7,46.247c0,0.012-0.16,0.023-0.16,0.037c0.075,13.005,5.831,24.951,15.977,33.099C26.201,84.14,30.948,88,34.638,90.235  C38.72,94.144,44.132,97,50.29,97c6.209,0,11.673-2.904,15.767-6.865c1.26-0.802,8.897-5.723,13.132-12.7  C87.761,69.398,93,58.073,93,46.348c0-0.006,0-0.012,0-0.017v-0.203c0-0.004,0-0.007,0-0.012s0-0.01,0-0.015  c0-0.884-0.27-1.762-0.323-2.633c-0.012-0.183-0.145-0.366-0.16-0.548c-0.055-0.757-0.188-1.51-0.285-2.256  c-0.016-0.126-0.06-0.252-0.077-0.377C89.306,19.354,71.312,3.147,49.612,3.147c-23.672,0-42.775,19.208-42.775,42.879  c0,0.055,0.163,0.11,0.163,0.165C7,46.21,7,46.228,7,46.247z M9.67,44.779c0.013-0.428,0.035-0.854,0.061-1.279  c0.023-0.361,0.049-0.721,0.083-1.079c0.036-0.386,0.081-0.771,0.127-1.153c0.045-0.364,0.085-0.728,0.139-1.089  c0.068-0.45,0.151-0.895,0.234-1.341c0.1-0.542,0.211-1.081,0.333-1.616c0.094-0.409,0.186-0.819,0.293-1.225  c0.101-0.389,0.214-0.771,0.328-1.156c0.087-0.296,0.177-0.59,0.27-0.883c0.151-0.471,0.308-0.94,0.474-1.402  c0.04-0.112,0.083-0.222,0.124-0.333c0.745-2.001,1.652-3.923,2.694-5.759c5.583,0.003,10.126,4.604,10.126,10.189  c0,5.586-4.545,10.188-10.131,10.188c-1.832,0-3.605-0.529-5.171-1.465C9.659,45.176,9.663,44.977,9.67,44.779z M36.539,88  c-0.029-0.034-0.043-0.078-0.077-0.11c-3.461-3.361-5.854-7.595-6.42-11.213c-0.004-0.025-0.012-0.052-0.016-0.076  c-0.077-0.517-0.117-1.021-0.117-1.507c0-0.454,0.038-0.902,0.104-1.345c0.897-5.728,7.465-10.401,15.978-11.593  c0.029-0.004,0.056-0.012,0.087-0.016c0.565-0.077,1.146-0.132,1.729-0.177c0.097-0.009,0.191-0.023,0.289-0.029  c0.567-0.039,1.143-0.055,1.721-0.063c0.116-0.002,0.229-0.011,0.345-0.012c11.413,0.048,20.351,5.857,20.351,13.234  c0,3.926-2.561,8.949-6.524,12.796c-0.09,0.087-0.133,0.205-0.197,0.31c-3.6,3.371-8.327,5.831-13.521,5.831  C44.974,94.03,40.162,91.474,36.539,88z M72.171,81.319c0.912-2.174,1.429-4.315,1.429-6.226c0-8.937-10.466-16.152-23.331-16.152  c-0.035,0-0.07,0.059-0.104,0.059h-0.02c-0.14,0-0.273-0.041-0.409-0.039c-0.655,0.01-1.308,0-1.948,0.048  c-0.083,0.006-0.161,0.004-0.245,0.012C36.736,59.899,28.16,65.914,27.06,73.455c-0.08,0.539-0.121,1.087-0.121,1.643  c0,0.536,0.043,1.084,0.115,1.643c0.006,0.044,0.016,0.086,0.021,0.13c0.203,1.466,0.629,2.993,1.281,4.525  c-0.956-0.972-1.897-2.037-2.766-3.174c-0.057-0.118-0.138-0.224-0.242-0.329c-0.683-0.92-1.317-1.88-1.86-2.886  c-0.015-0.026-0.026-0.051-0.038-0.077c-0.398-0.742-0.745-1.507-1.035-2.287c-0.026-0.071-0.052-0.141-0.076-0.212  c-0.412-1.16-0.681-2.36-0.778-3.587c-0.015-0.191-0.022-0.385-0.028-0.576c-0.012-0.41-0.009-0.82,0.022-1.237  c0.03-0.411,0.072-0.823,0.146-1.23c0.042-0.233,0.104-0.468,0.161-0.702c0.091-0.37,0.196-0.739,0.324-1.106  c0.065-0.194,0.13-0.389,0.206-0.583c0.227-0.563,0.477-1.122,0.788-1.675c0.233-0.416,0.479-0.82,0.735-1.209  c0.51-0.782,1.064-1.513,1.653-2.197c0.295-0.342,0.597-0.673,0.909-0.993c8.705-8.949,23.506-9.09,23.672-9.09  c0.196,0,19.62,0.183,27.094,13.49c0.013,0.023,0.022,0.046,0.035,0.071c0.264,0.476,0.493,0.957,0.695,1.442  c0.088,0.215,0.155,0.43,0.229,0.643c0.102,0.285,0.2,0.571,0.28,0.86c0.075,0.276,0.135,0.552,0.188,0.827  c0.043,0.211,0.08,0.423,0.11,0.636c0.046,0.327,0.087,0.655,0.107,0.98c0.006,0.113,0.006,0.228,0.009,0.341  C79.054,72.831,75.707,77.693,72.171,81.319z M84.613,26.893c0.319,0.58,0.628,1.167,0.917,1.762  c0.041,0.083,0.083,0.165,0.123,0.249c0.317,0.663,0.613,1.336,0.894,2.015c0.062,0.152,0.12,0.307,0.181,0.461  c0.238,0.595,0.461,1.195,0.668,1.801c0.043,0.127,0.088,0.255,0.129,0.383c0.756,2.283,1.308,4.633,1.645,7.03  c0.001,0.018,0.003,0.035,0.006,0.052c0.104,0.754,0.184,1.513,0.247,2.274c0.009,0.115,0.018,0.229,0.026,0.345  c0.048,0.67,0.077,1.344,0.092,2.02c0.002,0.104,0.007,0.208,0.007,0.312c-1.502,0.841-3.19,1.282-4.926,1.282  c-5.586,0-10.129-4.545-10.129-10.131c0-5.531,4.455-10.041,9.966-10.128C84.508,26.711,84.563,26.8,84.613,26.893z M49.598,6.168  c13.772,0,25.939,7.001,33.126,17.633c-6.326,0.922-11.204,6.369-11.204,12.947c0,7.223,5.876,13.101,13.099,13.101  c1.672,0,3.302-0.348,4.833-0.96c-0.515,7.636-3.141,14.815-7.635,20.891c0.21-1.722,0.116-3.42-0.265-5.09  c-0.003-0.014-0.006-0.026-0.009-0.038c-0.099-0.428-0.217-0.853-0.355-1.276c-0.036-0.108-0.074-0.219-0.111-0.327  c-0.121-0.349-0.255-0.695-0.403-1.039c-0.052-0.126-0.102-0.251-0.16-0.377c-0.206-0.454-0.429-0.906-0.681-1.355  C71.499,45.445,51.018,45.273,50.15,45.273c-0.162,0-1.009,0.006-2.334,0.113c-0.441,0.036-0.937,0.083-1.477,0.145  c-0.27,0.032-0.551,0.065-0.844,0.104c-6.711,0.893-18.916,3.98-24.907,14.641c-0.245,0.435-0.46,0.868-0.657,1.304  c-0.065,0.141-0.119,0.284-0.18,0.426c-0.12,0.29-0.238,0.577-0.339,0.866c-0.069,0.191-0.127,0.384-0.188,0.577  c-0.073,0.23-0.139,0.46-0.199,0.69c-0.063,0.234-0.117,0.47-0.168,0.706c-0.034,0.158-0.06,0.314-0.087,0.473  c-0.381,2.145-0.303,4.342,0.269,6.563c-5.485-6.474-8.724-14.513-9.287-23.098c1.6,0.679,3.31,1.064,5.074,1.064  c7.223,0,13.101-5.878,13.101-13.101c0-6.656-4.996-12.158-11.432-12.982C23.688,13.155,35.842,6.168,49.598,6.168z"/></svg>
