<svg xmlns="http://www.w3.org/2000/svg" xmlns:xlink="http://www.w3.org/1999/xlink" version="1.1" x="0px" y="0px" viewBox="0 0 5 6.25" enable-background="new 0 0 5 5" xml:space="preserve"><g><g><path d="M4.137,3.215c0.064-0.134,0.104-0.275,0.133-0.419c0.024-0.119,0.039-0.239,0.035-0.361    C4.301,2.221,4.252,2.016,4.162,1.821C4.014,1.501,3.79,1.244,3.499,1.047c-0.06-0.039-0.126-0.066-0.189-0.1    C3.286,0.935,3.263,0.923,3.239,0.911C3.158,0.874,3.075,0.846,2.986,0.833C2.85,0.812,2.726,0.757,2.608,0.686    C2.602,0.683,2.594,0.682,2.59,0.674c0.106-0.04,0.203-0.028,0.295,0.018c0.049,0.024,0.093,0.063,0.139,0.096    c0.021,0.014,0.043,0.029,0.067,0.038c0.056,0.021,0.114,0.041,0.18,0.063C3.202,0.8,3.161,0.705,3.138,0.596    C3.153,0.6,3.165,0.601,3.175,0.605c0.117,0.055,0.184,0.147,0.21,0.271C3.393,0.91,3.392,0.91,3.362,0.931    C3.448,0.985,3.534,1.04,3.626,1.1C3.585,0.997,3.562,0.896,3.557,0.78c0.119,0.059,0.186,0.146,0.217,0.26    c0.016,0.057,0.035,0.118-0.01,0.182C3.807,1.256,3.855,1.297,3.89,1.325C3.87,1.221,3.908,1.1,3.95,0.977    c0.108,0.097,0.123,0.348,0.021,0.472c0.033,0.047,0.066,0.095,0.106,0.153c0-0.125,0.027-0.236,0.071-0.347    C4.25,1.375,4.233,1.606,4.146,1.72c0.029,0.063,0.058,0.127,0.086,0.19c0.007-0.104,0.021-0.204,0.05-0.307    c0.099,0.072,0.13,0.333,0.044,0.451C4.311,2.047,4.297,2.039,4.271,2.026c0.049,0.181,0.073,0.359,0.06,0.539    C4.317,2.745,4.279,2.92,4.224,3.093c0.021-0.024,0.041-0.05,0.063-0.072s0.047-0.043,0.072-0.063s0.051-0.038,0.075-0.058    L4.432,2.9C4.444,2.896,4.457,2.893,4.469,2.89c0.039,0.173-0.095,0.413-0.256,0.418C4.188,3.26,4.185,3.241,4.191,3.17    C4.176,3.202,4.164,3.226,4.153,3.25c-0.12,0.281-0.287,0.531-0.509,0.742C3.548,4.083,3.444,4.164,3.327,4.229    c-0.011,0.005-0.02,0.015-0.029,0.023L3.3,4.25C3.232,4.276,3.165,4.301,3.098,4.324C3.074,4.333,3.049,4.337,3.02,4.345    c0.006-0.034,0.028-0.032,0.044-0.038C3.132,4.28,3.2,4.253,3.269,4.227c0.007-0.003,0.015-0.01,0.027-0.018    C3.24,4.217,3.19,4.222,3.141,4.229C3.139,4.224,3.137,4.218,3.135,4.214C3.226,4.056,3.376,3.97,3.547,3.895    C3.55,3.971,3.521,4.028,3.49,4.089c0.044-0.038,0.088-0.075,0.132-0.111c-0.033-0.19,0.019-0.36,0.112-0.532    c0.047,0.06,0.064,0.122,0.066,0.19c0.002,0.068-0.02,0.129-0.044,0.19c0.081-0.09,0.159-0.182,0.212-0.291L3.968,3.536    c0.014-0.02,0.03-0.037,0.041-0.058C4.048,3.4,4.087,3.322,4.126,3.244C4.13,3.233,4.133,3.225,4.137,3.215z"/><path d="M0.88,3.244c0.03,0.065,0.06,0.133,0.092,0.197c0.015,0.029,0.037,0.056,0.055,0.084L1.025,3.523    C1.061,3.581,1.095,3.64,1.134,3.695C1.17,3.747,1.213,3.796,1.257,3.845C1.185,3.713,1.17,3.583,1.266,3.441    C1.355,3.613,1.413,3.78,1.379,3.977c0.04,0.034,0.087,0.074,0.133,0.113C1.482,4.03,1.454,3.973,1.45,3.905    c0.112,0.006,0.381,0.198,0.413,0.312c-0.04,0.011-0.095,0.005-0.176-0.013C1.735,4.228,1.781,4.251,1.83,4.271    c0.049,0.021,0.1,0.036,0.15,0.054C1.979,4.328,1.979,4.332,1.978,4.337c-0.012,0-0.023,0.003-0.033-0.001    C1.873,4.312,1.802,4.287,1.73,4.263C1.725,4.26,1.717,4.257,1.71,4.253C1.647,4.212,1.583,4.174,1.522,4.13    C1.268,3.943,1.078,3.701,0.931,3.425C0.89,3.347,0.854,3.267,0.813,3.185C0.812,3.267,0.812,3.267,0.782,3.312    c-0.057-0.01-0.104-0.039-0.144-0.08C0.552,3.146,0.524,3.035,0.523,2.916c0-0.023,0.012-0.028,0.032-0.024    c0.009,0.007,0.019,0.013,0.028,0.021c0.026,0.02,0.055,0.039,0.079,0.062c0.042,0.04,0.082,0.082,0.121,0.123    C0.728,2.929,0.685,2.752,0.671,2.568c-0.015-0.185,0.014-0.364,0.062-0.55C0.708,2.032,0.69,2.043,0.673,2.053    C0.603,1.949,0.607,1.714,0.715,1.6c0.041,0.113,0.046,0.226,0.04,0.347C0.79,1.867,0.821,1.796,0.854,1.72    c-0.06-0.083-0.075-0.181-0.068-0.281C0.79,1.373,0.807,1.312,0.851,1.252C0.897,1.366,0.922,1.479,0.925,1.6    c0.036-0.053,0.07-0.102,0.104-0.152c-0.057-0.07-0.074-0.154-0.07-0.243c0.004-0.083,0.03-0.16,0.087-0.235    c0.05,0.126,0.077,0.247,0.06,0.378C1.151,1.301,1.194,1.26,1.232,1.223C1.225,1.202,1.212,1.186,1.211,1.167    C1.207,1.039,1.264,0.873,1.437,0.785c0.009,0.107-0.023,0.204-0.058,0.311c0.092-0.058,0.175-0.11,0.263-0.165    C1.625,0.925,1.61,0.919,1.613,0.894c0.013-0.11,0.098-0.259,0.25-0.298C1.842,0.702,1.8,0.797,1.73,0.887    C1.806,0.861,1.875,0.84,1.943,0.815c0.013-0.005,0.022-0.02,0.034-0.03c0.099-0.092,0.212-0.144,0.349-0.136    c0.027,0.003,0.055,0.009,0.082,0.014c0,0.005,0.002,0.008,0.003,0.012C2.372,0.697,2.335,0.722,2.294,0.74    C2.195,0.787,2.092,0.82,1.982,0.839C1.908,0.851,1.837,0.887,1.765,0.912c-0.009,0.005-0.017,0.01-0.025,0.016    C1.698,0.944,1.655,0.958,1.617,0.98c-0.37,0.209-0.636,0.511-0.804,0.9c-0.1,0.23-0.131,0.472-0.111,0.719    C0.717,2.808,0.774,3.009,0.855,3.2c0.004,0.009,0.012,0.015,0.017,0.021C0.875,3.229,0.878,3.236,0.88,3.244z"/><path d="M0.766,3.743C0.923,3.753,1.07,3.769,1.196,3.86c0.068,0.05,0.105,0.117,0.104,0.202    C1.132,4.14,0.865,4.002,0.766,3.743z"/><path d="M4.235,3.742C4.139,3.989,3.891,4.133,3.702,4.068C3.696,3.984,3.732,3.919,3.795,3.867    C3.868,3.807,3.957,3.78,4.049,3.764C4.107,3.753,4.167,3.75,4.235,3.742z"/><path d="M3.298,4.252c0.12-0.039,0.239-0.02,0.358,0.006c0.045,0.01,0.09,0.022,0.138,0.035    C3.668,4.423,3.377,4.438,3.223,4.34C3.228,4.292,3.266,4.273,3.3,4.25L3.298,4.252z"/><path d="M1.71,4.253c0.007,0.004,0.014,0.007,0.02,0.01C1.748,4.286,1.766,4.31,1.782,4.332    c-0.137,0.097-0.42,0.102-0.569-0.029C1.289,4.244,1.55,4.218,1.71,4.253z"/><path d="M0.963,3.68C0.778,3.691,0.635,3.514,0.61,3.336c0.003-0.002,0.007-0.005,0.009-0.005    c0.116,0.028,0.224,0.073,0.303,0.166C0.965,3.549,0.983,3.609,0.963,3.68z"/><path d="M0.584,2.912c-0.01-0.008-0.02-0.014-0.028-0.021c-0.031-0.044-0.07-0.085-0.092-0.134    c-0.045-0.099-0.04-0.201-0.008-0.309c0.011,0.004,0.024,0.006,0.031,0.013C0.562,2.539,0.63,2.621,0.657,2.729    c0.014,0.055,0.005,0.105-0.02,0.153C0.627,2.904,0.611,2.921,0.584,2.912z"/><path d="M4.434,2.899C4.42,2.904,4.406,2.91,4.391,2.916c-0.055-0.055-0.063-0.12-0.047-0.188    c0.029-0.118,0.105-0.204,0.199-0.291c0.031,0.1,0.037,0.19,0.01,0.283C4.531,2.793,4.485,2.849,4.432,2.9L4.434,2.899z"/><path d="M4.391,3.326C4.365,3.537,4.198,3.691,4.039,3.68C4.022,3.615,4.03,3.554,4.075,3.501    C4.156,3.404,4.268,3.361,4.391,3.326z"/><path d="M4.459,1.991c0.083,0.125,0.039,0.353-0.061,0.454c-0.049-0.03-0.062-0.08-0.052-0.13    C4.361,2.242,4.384,2.17,4.408,2.1C4.42,2.062,4.441,2.029,4.459,1.991z"/><path d="M0.537,1.998C0.597,2.11,0.661,2.22,0.654,2.353C0.651,2.4,0.641,2.418,0.596,2.446    C0.5,2.308,0.468,2.16,0.537,1.998z"/><path d="M4.029,1.761C3.938,1.77,3.741,1.641,3.687,1.536C3.841,1.484,3.994,1.611,4.029,1.761z"/><path d="M1.323,1.537C1.224,1.648,1.12,1.739,0.972,1.77C0.998,1.611,1.166,1.486,1.323,1.537z"/><path d="M0.88,3.244C0.878,3.236,0.875,3.229,0.872,3.222C0.846,3.139,0.835,3.057,0.87,2.974    c0.025-0.059,0.062-0.105,0.132-0.133C1.004,2.907,1,2.967,0.985,3.023C0.968,3.087,0.942,3.147,0.918,3.208    C0.912,3.223,0.894,3.232,0.88,3.244z"/><path d="M0.735,2.449C0.73,2.301,0.874,2.143,1.043,2.17C0.969,2.297,0.873,2.394,0.735,2.449z"/><path d="M3.969,3.535c-0.01,0.006-0.018,0.012-0.027,0.019c-0.055-0.094-0.06-0.28-0.01-0.417    c0.062,0.048,0.089,0.111,0.095,0.185c0.004,0.054-0.009,0.104-0.032,0.153C3.985,3.495,3.977,3.516,3.969,3.535L3.969,3.535z"/><path d="M4.137,3.215C4.133,3.225,4.13,3.233,4.126,3.244C4.114,3.236,4.099,3.23,4.09,3.221    C4.03,3.14,3.983,2.938,4.006,2.849C4.09,2.867,4.154,2.987,4.151,3.062C4.149,3.113,4.142,3.164,4.137,3.215z"/><path d="M1.027,3.525C1.02,3.508,1.013,3.49,1.005,3.474C0.952,3.356,0.97,3.231,1.053,3.148    c0.004-0.003,0.009-0.006,0.019-0.012c0.04,0.141,0.049,0.277-0.008,0.42C1.048,3.544,1.037,3.534,1.025,3.523L1.027,3.525z"/><path d="M0.787,2.094c0.065-0.18,0.249-0.26,0.374-0.195C1.055,1.998,0.94,2.072,0.787,2.094z"/><path d="M4.032,2.477c0.172,0.028,0.254,0.221,0.203,0.366C4.123,2.745,4.073,2.618,4.032,2.477z"/><path d="M3.967,2.176C4.124,2.134,4.26,2.297,4.271,2.44C4.188,2.438,4.034,2.308,3.967,2.176z"/><path d="M0.957,2.476c0.004,0.112-0.106,0.313-0.196,0.36C0.716,2.655,0.818,2.504,0.957,2.476z"/><path d="M4.209,2.093c-0.15-0.021-0.264-0.094-0.366-0.193C4,1.818,4.174,1.956,4.209,2.093z"/><path d="M1.71,1.213C1.577,1.28,1.446,1.314,1.3,1.296C1.391,1.163,1.587,1.129,1.71,1.213z"/><path d="M3.239,0.911C3.263,0.923,3.286,0.935,3.31,0.947C3.313,0.953,3.316,0.96,3.323,0.972    C3.187,1.024,3.052,1.016,2.904,0.988c0.053-0.058,0.111-0.086,0.178-0.089C3.135,0.897,3.187,0.907,3.239,0.911z"/><path d="M3.294,1.213c0.128-0.091,0.322-0.039,0.408,0.083C3.556,1.312,3.425,1.282,3.294,1.213z"/><path d="M1.739,0.928c0.008-0.006,0.017-0.011,0.025-0.016C1.818,0.908,1.873,0.898,1.926,0.9    c0.063,0.003,0.118,0.031,0.17,0.088c-0.148,0.029-0.283,0.033-0.432-0.02C1.698,0.95,1.718,0.938,1.739,0.928z"/></g></g></svg>
